<svg width="67" height="64" viewBox="0 0 67 64" fill="none" xmlns="http://www.w3.org/2000/svg">
<path d="M57.9445 14.3875L50.9763 7.7375C50.4847 7.2659 49.9005 6.89171 49.2571 6.63644C48.6137 6.38117 47.9238 6.24984 47.2272 6.25C45.8073 6.25 44.4726 6.78125 43.4715 7.7375L35.9732 14.9C35.4795 15.3695 35.0878 15.9276 34.8206 16.5422C34.5533 17.1568 34.4159 17.8158 34.416 18.4813C34.416 19.8375 34.9722 21.1125 35.9732 22.0688L41.4563 27.3062C40.1728 30.0085 38.3884 32.4668 36.1892 34.5625C33.9954 36.6684 31.4221 38.3791 28.5928 39.6125L23.1098 34.375C22.6182 33.9034 22.034 33.5292 21.3906 33.2739C20.7472 33.0187 20.0573 32.8873 19.3606 32.8875C17.9408 32.8875 16.6061 33.4187 15.605 34.375L8.1002 41.5312C7.60588 42.0017 7.21382 42.5608 6.94657 43.1765C6.67932 43.7922 6.54216 44.4522 6.54297 45.1188C6.54297 46.475 7.09912 47.75 8.1002 48.7062L15.0554 55.35C16.6519 56.8812 18.8568 57.75 21.1207 57.75C21.5983 57.75 22.0564 57.7125 22.5078 57.6375C31.3277 56.25 40.0757 51.7688 47.1356 45.0312C54.1889 38.3 58.8736 29.95 60.3458 21.5C60.7907 18.9188 59.8943 16.2625 57.9445 14.3875V14.3875Z" fill="black"/>
</svg>
