<svg width="56" height="63" viewBox="0 0 56 63" fill="none" xmlns="http://www.w3.org/2000/svg">
<path d="M44 15.75C44 24.4494 36.8375 31.5 27.8875 31.5C19.1625 31.5 11.8875 24.4494 11.8875 15.75C11.8875 7.05182 19.1625 0 27.8875 0C36.8375 0 44 7.05182 44 15.75ZM35.8875 44.543C32.55 45.4166 29.8875 48.5051 29.8875 52.1719V55.125C29.8875 55.6418 30.2125 56.1463 30.5875 56.5154L32.5875 58.4842C33.3625 59.2594 34.6375 59.2594 35.4125 58.4842C36.2 57.7213 36.2 56.4662 35.4125 55.7033L33.8875 54.3129V52.1719C33.8875 49.9939 35.7875 48.2344 37.8875 48.2344C40.2125 48.2344 42 49.9939 42 52.1719V54.3129L40.5875 55.7033C39.8 56.4662 39.8 57.7213 40.5875 58.4842C41.3625 59.2594 42.6375 59.2594 43.4125 58.4842L45.4125 56.5154C45.7875 56.1463 46 55.6418 46 55.125V52.1719C46 48.5051 43.45 45.4166 40 44.543V37.9969C49.1875 40.1994 56 48.2467 56 58.0781V59.0625C56 61.2404 54.2125 63 52 63H4C1.79125 63 0 61.2404 0 59.0625V58.0781C0 48.3574 6.81625 40.1994 16 37.9969V45.5643C13.1125 46.4133 11 49.0465 11 52.1719C11 55.974 14.1375 59.0625 18 59.0625C21.8625 59.0625 25 55.974 25 52.1719C25 49.0465 22.8875 46.4133 20 45.5643V37.4309C20.3375 37.4186 20.6625 37.4062 21 37.4062H35C35.3375 37.4062 35.6625 37.4186 36 37.4309L35.8875 44.543V44.543ZM20.8875 52.1719C20.8875 53.8084 19.6625 55.125 17.8875 55.125C16.3375 55.125 14.8875 53.8084 14.8875 52.1719C14.8875 50.5354 16.3375 49.2188 17.8875 49.2188C19.6625 49.2188 20.8875 50.5354 20.8875 52.1719Z" fill="#E41818"/>
</svg>
