<svg width="57" height="56" viewBox="0 0 57 56" fill="none" xmlns="http://www.w3.org/2000/svg">
<path d="M5.06113 16.7253C4.74348 16.0717 4.64005 15.3374 4.76512 14.6236C4.89018 13.9098 5.23757 13.2517 5.75938 12.74L9.11763 9.44068C9.63851 8.9289 10.3081 8.58835 11.0341 8.46591C11.7602 8.34348 12.507 8.44518 13.1718 8.75701L16.6749 5.31535C17.5656 4.44048 18.7736 3.94901 20.0331 3.94901C21.2927 3.94901 22.5006 4.44048 23.3914 5.31535L30.1103 11.9163C31.0007 12.7915 31.501 13.9782 31.501 15.2157C31.501 16.4531 31.0007 17.6399 30.1103 18.515L26.7496 21.8143L26.6309 21.6977L18.2353 29.9483L18.354 30.065L14.9958 33.3643C14.5547 33.7979 14.0309 34.1418 13.4545 34.3764C12.8781 34.6111 12.2603 34.7318 11.6363 34.7318C11.0124 34.7318 10.3945 34.6111 9.81813 34.3764C9.2417 34.1418 8.71798 33.7979 8.27688 33.3643L1.56038 26.7657C1.1191 26.3323 0.769044 25.8178 0.530213 25.2515C0.291383 24.6852 0.168457 24.0782 0.168457 23.4652C0.168457 22.8522 0.291383 22.2452 0.530213 21.6789C0.769044 21.1126 1.1191 20.598 1.56038 20.1647L5.05876 16.7253H5.06113ZM21.5911 33.2453L29.9891 24.997L38.5059 33.3643L30.1103 41.615L21.5935 33.2477L21.5911 33.2453ZM33.4661 44.912L41.8641 36.6637L46.0631 40.789C47.1687 41.8845 47.7876 43.3656 47.7844 44.9082C47.7812 46.4509 47.1561 47.9295 46.046 49.0205C44.9358 50.1115 43.431 50.726 41.8608 50.7296C40.2906 50.7332 38.7828 50.1256 37.6675 49.0397L33.4685 44.9143L33.4661 44.912ZM40.1874 8.61468L50.2621 18.515L41.1445 27.4727C39.6886 28.903 37.0025 28.588 35.1476 26.7657L31.7894 23.464C29.9345 21.644 29.6115 19.005 31.0698 17.5723L40.185 8.61468H40.1874ZM43.5433 5.31535L44.2629 4.60835C45.7188 3.17568 48.4049 3.49301 50.2598 5.31535L53.618 8.61468C55.4729 10.437 55.7959 13.076 54.3376 14.5087L53.618 15.2157L43.5456 5.31535H43.5433ZM13.3166 41.615L18.3516 36.6637C18.5721 36.4469 18.8339 36.2749 19.1221 36.1575C19.4103 36.0401 19.7192 35.9796 20.0311 35.9795C20.3431 35.9794 20.652 36.0397 20.9402 36.1569C21.2285 36.2741 21.4904 36.4459 21.7111 36.6625C21.9317 36.8791 22.1068 37.1364 22.2263 37.4195C22.3458 37.7026 22.4073 38.006 22.4074 38.3125C22.4075 38.619 22.3462 38.9225 22.2269 39.2057C22.1076 39.4889 21.9328 39.7462 21.7123 39.963L16.6749 44.9167C17.1201 45.3542 17.3702 45.9476 17.3702 46.5664C17.3702 47.1851 17.1201 47.7784 16.6749 48.216L13.3166 51.5153C13.0961 51.7323 12.8341 51.9044 12.5458 52.0218C12.2575 52.1392 11.9484 52.1997 11.6363 52.1997C11.3242 52.1997 11.0152 52.1392 10.7268 52.0218C10.4385 51.9044 10.1766 51.7323 9.956 51.5153L6.59776 48.216C6.15251 47.7784 5.90239 47.1851 5.90239 46.5664C5.90239 45.9476 6.15251 45.3542 6.59776 44.9167L9.956 41.6173C10.1766 41.4004 10.4385 41.2283 10.7268 41.1109C11.0152 40.9935 11.3242 40.933 11.6363 40.933C11.9484 40.933 12.2575 40.9935 12.5458 41.1109C12.8341 41.2283 13.0961 41.4004 13.3166 41.6173V41.615Z" fill="#3661B4"/>
</svg>
