<svg width="63" height="63" viewBox="0 0 63 63" fill="none" xmlns="http://www.w3.org/2000/svg">
<path d="M33.7312 57.75C32.9875 57.75 32.2875 57.6074 31.6312 57.3221C30.975 57.0386 30.4062 56.6562 29.925 56.175L6.82497 33.075C6.34372 32.5938 5.96134 32.025 5.67784 31.3687C5.39259 30.7125 5.24997 30.0125 5.24997 29.2687V10.5C5.24997 9.05625 5.76447 7.81987 6.79347 6.79087C7.82072 5.76362 9.05622 5.25 10.5 5.25H29.2687C30.0125 5.25 30.7125 5.39175 31.3687 5.67525C32.025 5.9605 32.5937 6.34375 33.075 6.825L56.175 29.9906C57.1812 30.9969 57.6843 32.2324 57.6843 33.6971C57.6843 35.1636 57.1812 36.4 56.175 37.4062L37.4062 56.175C36.925 56.6562 36.3676 57.0386 35.7341 57.3221C35.0988 57.6074 34.4312 57.75 33.7312 57.75V57.75ZM17.0625 21C18.1562 21 19.0855 20.6167 19.8502 19.8502C20.6167 19.0855 21 18.1562 21 17.0625C21 15.9688 20.6167 15.0395 19.8502 14.2748C19.0855 13.5083 18.1562 13.125 17.0625 13.125C15.9687 13.125 15.0395 13.5083 14.2747 14.2748C13.5082 15.0395 13.125 15.9688 13.125 17.0625C13.125 18.1562 13.5082 19.0855 14.2747 19.8502C15.0395 20.6167 15.9687 21 17.0625 21Z" fill="#D3CC14"/>
</svg>
