<svg width="69" height="69" viewBox="0 0 69 69" fill="none" xmlns="http://www.w3.org/2000/svg">
<path d="M5.74997 63.25V57.5C5.74997 57.5 20.125 51.75 34.5 51.75C48.875 51.75 63.25 57.5 63.25 57.5V63.25H5.74997ZM32.4875 26.1625C29.0375 14.95 11.5 17.5375 11.5 17.5375C11.5 17.5375 12.075 39.9625 28.4625 36.5125C27.3125 28.175 23 25.875 23 25.875C31.05 25.875 31.625 35.65 31.625 35.65V48.875H37.375V36.8C37.375 36.8 37.375 25.5875 46 22.7125C46 22.7125 40.25 31.3375 40.25 37.0875C60.375 39.1 60.375 11.5 60.375 11.5C60.375 11.5 34.7875 8.62505 32.4875 26.1625Z" fill="#44D12D"/>
</svg>
